<?xml version="1.0" encoding="utf-8"?>
<!-- Generator: Adobe Illustrator 23.0.2, SVG Export Plug-In . SVG Version: 6.00 Build 0)  -->
<svg version="1.1" id="Layer_1" xmlns="http://www.w3.org/2000/svg" xmlns:xlink="http://www.w3.org/1999/xlink" x="0px" y="0px"
	 viewBox="0 0 517.4 120.93" style="enable-background:new 0 0 517.4 120.93;" xml:space="preserve">
<style type="text/css">
	.st0{fill:#55BCE7;}
</style>
<g>
	<g>
		<g>
			<g>
				<path class="st0" d="M77.15,120.93H39.44c-5.64,0-10.24-4.59-10.24-10.24V0h6.13v110.7c0,2.26,1.84,4.1,4.1,4.1h37.71V120.93z"
					/>
			</g>
		</g>
		<g>
			<g>
				<path class="st0" d="M55.51,104.89h-6.13V76.53c0-4.78,3.89-8.66,8.66-8.66h27.38c1.69,0,3.06-1.37,3.06-3.06V32.69
					c0-1.69-1.37-3.06-3.06-3.06H0v-6.13h85.42c5.07,0,9.2,4.13,9.2,9.2v32.11c0,5.07-4.13,9.2-9.2,9.2H58.04
					c-1.39,0-2.53,1.13-2.53,2.53V104.89z"/>
			</g>
		</g>
	</g>
	<g>
		<g>
			<path class="st0" d="M141.51,40.43v34.89h-6.93V40.43H121.6V34.2h32.95v6.23H141.51z"/>
			<path class="st0" d="M163.42,66.03l-3.93,9.28h-7.22l18.15-41.11h7.11l17.97,41.11h-7.4l-3.94-9.28H163.42z M173.76,41.6
				l-7.75,18.27h15.51L173.76,41.6z"/>
			<path class="st0" d="M226.86,69.03v6.28h-24.73V34.2h6.93v34.83H226.86z"/>
			<path class="st0" d="M241.61,40.43v11.1h20.09v6.23h-20.09v11.34h23.14v6.23h-30.07V34.2h29.37v6.23H241.61z"/>
			<path class="st0" d="M303.23,75.31l-21.91-29.48v29.48h-6.93V34.2h6.81l22.03,29.54V34.2h6.81v41.11H303.23z"/>
			<path class="st0" d="M337.12,40.43v34.89h-6.93V40.43h-12.98V34.2h32.95v6.23H337.12z"/>
			<path class="st0" d="M373.66,34.2c10.34,0,16.27,5.11,16.27,14.04c0,9.28-5.93,14.68-16.27,14.68h-9.46v12.39h-6.93V34.2H373.66z
				 M364.2,56.7h9.16c6.34,0,9.93-2.7,9.93-8.28c0-5.4-3.58-7.99-9.93-7.99h-9.16V56.7z"/>
			<path class="st0" d="M432.93,58.28c0,10.75-6.75,17.33-17.86,17.33c-11.1,0-17.91-6.58-17.91-17.33V34.2h6.93v24.08
				c0,6.93,4.29,11.1,11.04,11.1c6.7,0,10.87-4.11,10.87-11.1V34.2h6.93V58.28z"/>
			<path class="st0" d="M471.94,38.13l-2.88,6.11c-4.46-2.7-8.93-3.82-12.04-3.82c-4.05,0-6.7,1.53-6.7,4.29
				c0,8.99,22.2,4.17,22.14,18.97c0,7.34-6.46,11.86-15.51,11.86c-6.46,0-12.57-2.64-16.8-6.52l3-5.99
				c4.23,3.88,9.51,5.99,13.92,5.99c4.82,0,7.69-1.82,7.69-4.99c0-9.16-22.2-4.05-22.2-18.68c0-7.05,6.05-11.45,14.98-11.45
				C462.89,33.91,468.12,35.61,471.94,38.13z"/>
			<path class="st0" d="M510.47,75.31V58.28h-21.79v17.03h-6.93V34.2h6.93v17.86h21.79V34.2h6.93v41.11H510.47z"/>
		</g>
	</g>
	<g>
		<path class="st0" d="M137.92,105.71l-4.8-12.93l-4.86,12.93h-1.19l-5.47-14.46h1.25l4.83,13.21l4.8-13.21h1.25l4.83,13.21
			l4.8-13.21h1.22l-5.47,14.46H137.92z"/>
		<path class="st0" d="M167.54,98.47c0,4.27-3,7.27-7.13,7.27c-4.11,0-7.13-3-7.13-7.27c0-4.22,3.02-7.24,7.13-7.24
			C164.54,91.23,167.54,94.25,167.54,98.47z M154.41,98.5c0,3.64,2.53,6.16,6,6.16c3.5,0,5.99-2.53,5.99-6.16
			c0-3.64-2.5-6.16-5.99-6.16C156.93,92.34,154.41,94.86,154.41,98.5z"/>
		<path class="st0" d="M180.7,94.89c0.92-2.33,2.8-3.61,5.38-3.66v1.19c-3.19,0-5.13,2.11-5.38,5.47v7.83h-1.17V91.26h1.17V94.89z"
			/>
		<path class="st0" d="M198.32,101.47v4.25h-1.17V85.12h1.17V99.8l8.55-8.55h1.42l-5.47,5.61l6.19,8.85h-1.33l-5.69-8.02
			L198.32,101.47z"/>
		<path class="st0" d="M221.53,89.65v1.97H226v1h-4.47v13.1h-1.14v-13.1h-1.83v-1h1.83v-1.89c0-2.8,1.97-4.66,4.27-4.63
			c1.05,0,2.14,0.39,2.94,1.03l-0.53,0.94c-0.69-0.53-1.55-0.86-2.39-0.86C222.92,86.18,221.53,87.59,221.53,89.65z"/>
		<path class="st0" d="M248.78,98.47c0,4.27-3,7.27-7.13,7.27c-4.11,0-7.13-3-7.13-7.27c0-4.22,3.03-7.24,7.13-7.24
			C245.79,91.23,248.78,94.25,248.78,98.47z M235.66,98.5c0,3.64,2.53,6.16,6,6.16c3.5,0,5.99-2.53,5.99-6.16
			c0-3.64-2.5-6.16-5.99-6.16C238.18,92.34,235.66,94.86,235.66,98.5z"/>
		<path class="st0" d="M261.94,94.89c0.92-2.33,2.8-3.61,5.38-3.66v1.19c-3.19,0-5.13,2.11-5.38,5.47v7.83h-1.17V91.26h1.17V94.89z"
			/>
		<path class="st0" d="M288.95,93.25l-0.67,0.83c-1.17-1.08-2.66-1.75-4.47-1.75c-3.47,0-5.97,2.53-5.97,6.13
			c0,3.66,2.5,6.19,5.97,6.19c1.94,0,3.61-0.72,4.72-2.03l0.69,0.75c-1.28,1.5-3.19,2.36-5.44,2.36c-4.08,0-7.08-3-7.08-7.24
			s3-7.27,7.08-7.27C285.87,91.23,287.67,91.98,288.95,93.25z"/>
		<path class="st0" d="M312.99,98.8h-12.63c0.17,3.52,2.61,5.88,5.97,5.88c1.97,0,3.72-0.72,4.88-2l0.67,0.75
			c-1.33,1.44-3.3,2.3-5.61,2.3c-4.08,0-7.05-3-7.05-7.24s2.97-7.27,7.05-7.27C310.52,91.23,313.07,94.34,312.99,98.8z
			 M311.93,97.78c-0.22-3.28-2.36-5.5-5.66-5.5c-3.25,0-5.61,2.22-5.88,5.5H311.93z"/>
		<path class="st0" d="M348.3,92.37l-0.5,0.94c-1-0.64-2.28-1.03-3.66-1.03c-2.03,0-3.61,0.78-3.61,2.5c0,3.89,8.44,1.97,8.44,7.08
			c0,2.69-2.42,3.89-5.02,3.89c-2.03,0-3.97-0.72-5.3-2l0.53-0.89c1.25,1.17,3,1.83,4.83,1.83c2.03,0,3.77-0.8,3.86-2.64
			c0.11-4.08-8.44-2.22-8.44-7.19c0-2.53,2.19-3.64,4.75-3.64C345.77,91.23,347.16,91.67,348.3,92.37z"/>
		<path class="st0" d="M373.36,98.47c0,4.27-3,7.27-7.13,7.27c-4.11,0-7.13-3-7.13-7.27c0-4.22,3.03-7.24,7.13-7.24
			C370.37,91.23,373.36,94.25,373.36,98.47z M360.24,98.5c0,3.64,2.53,6.16,6,6.16c3.5,0,5.99-2.53,5.99-6.16
			c0-3.64-2.5-6.16-5.99-6.16C362.76,92.34,360.24,94.86,360.24,98.5z"/>
		<path class="st0" d="M385.5,105.71V85.12h1.17v20.59H385.5z"/>
		<path class="st0" d="M412.33,105.71h-1.14v-3.86c-0.92,2.5-2.94,3.86-5.8,3.89c-3.5,0-5.52-2.11-5.52-5.66v-8.83h1.14v8.6
			c0,2.97,1.72,4.72,4.64,4.72c3.5-0.08,5.55-2.47,5.55-6.24v-7.08h1.14V105.71z"/>
		<path class="st0" d="M432.71,104.72c-0.92,0.64-1.94,1.03-3.02,1.03c-2.05,0.03-3.28-1.3-3.28-4.02v-9.1h-2.11v-1h2.11v-3.58h1.11
			v3.58h4.91v1h-4.91v8.96c0,2.05,0.81,3.05,2.3,3.02c0.83,0,1.69-0.3,2.44-0.83L432.71,104.72z"/>
		<path class="st0" d="M445.56,87.09c0,0.58-0.44,1.03-0.97,1.03c-0.53,0-0.97-0.44-0.97-1.03c0-0.55,0.44-1,0.97-1
			C445.12,86.09,445.56,86.54,445.56,87.09z M444.01,105.71V91.26h1.14v14.46H444.01z"/>
		<path class="st0" d="M471.43,98.47c0,4.27-3,7.27-7.13,7.27c-4.11,0-7.13-3-7.13-7.27c0-4.22,3.03-7.24,7.13-7.24
			C468.43,91.23,471.43,94.25,471.43,98.47z M458.3,98.5c0,3.64,2.53,6.16,6,6.16c3.5,0,5.99-2.53,5.99-6.16
			c0-3.64-2.5-6.16-5.99-6.16C460.83,92.34,458.3,94.86,458.3,98.5z"/>
		<path class="st0" d="M496.11,96.89v8.83h-1.17v-8.6c0-2.97-1.75-4.72-4.72-4.72c-3.33,0.08-5.38,2.16-5.63,5.5v7.83h-1.17V91.26
			h1.17v3.69c0.97-2.39,3.03-3.66,5.91-3.72C494.03,91.23,496.11,93.36,496.11,96.89z"/>
		<path class="st0" d="M516.73,92.37l-0.5,0.94c-1-0.64-2.28-1.03-3.66-1.03c-2.03,0-3.61,0.78-3.61,2.5c0,3.89,8.44,1.97,8.44,7.08
			c0,2.69-2.42,3.89-5.02,3.89c-2.03,0-3.97-0.72-5.3-2l0.53-0.89c1.25,1.17,3,1.83,4.83,1.83c2.03,0,3.77-0.8,3.86-2.64
			c0.11-4.08-8.44-2.22-8.44-7.19c0-2.53,2.19-3.64,4.75-3.64C514.21,91.23,515.6,91.67,516.73,92.37z"/>
	</g>
</g>
</svg>
