<?xml version="1.0" encoding="UTF-8"?>
<svg id="Layer_1"
     height="44"
     data-name="Layer 1"
     xmlns="http://www.w3.org/2000/svg"
     viewBox="0 0 376.58 85.38">
    <g>
        <g>
            <rect y="10.08"
                  width="11.09"
                  height="38.91"
                  style="fill: #55bbe6; stroke-width: 0px;" />
            <polygon points="74.34 0 74.34 85.38 56.47 85.38 37.7 58.86 18.03 85.38 0 85.38 0 53.9 11.09 53.9 11.09 74.29 12.49 74.29 32.64 47.15 43 47.15 61.66 73.52 63.25 73.62 63.25 0 74.34 0"
                     style="fill: #55bbe6; stroke-width: 0px;" />
        </g>
        <polygon points="13.79 0 58.33 34.28 58.33 48.07 11.09 11.72 11.09 48.98 0 48.98 0 0 13.79 0"
                 style="fill: #55bbe6; stroke-width: 0px;" />
    </g>
    <g>
        <g>
            <path d="M118.57,39.71h-.03v-.03l-20.13-25.9v23.88c0,.91-.33,1.69-.98,2.32-.64.65-1.41.98-2.32.98s-1.69-.33-2.32-.98c-.65-.63-.98-1.41-.98-2.32V4.13c0-.71.21-1.34.62-1.9.41-.58.95-.98,1.62-1.2.65-.24,1.33-.26,2.02-.06.67.21,1.22.59,1.65,1.15l20.13,25.93V4.13c0-.91.32-1.69.95-2.32.65-.65,1.44-.98,2.35-.98s1.69.33,2.32.98c.65.63.98,1.41.98,2.32v33.6s0,.09-.03.17v.14s0,.09-.03.17c0,.07,0,.13-.03.17l-.03.14c-.02.09-.04.15-.06.17,0,.02-.02.07-.06.14-.02.07-.04.13-.06.17l-.06.14-.08.14s-.05.09-.08.17l-.09.08s-.06.09-.11.17l-.08.11s-.06.06-.11.11c-.06.07-.09.11-.11.11,0,.02-.04.06-.11.11-.06.06-.1.09-.14.11.06-.04.05-.03-.03.03l-.03.03c-.15.11-.29.21-.42.28h-.03c-.15.07-.3.14-.45.2-.07.04-.09.05-.06.03-.15.06-.31.09-.48.11l-.09.03c-.17.02-.33.03-.47.03-.11,0-.23,0-.36-.03.04.02.02.02-.06,0-.11-.02-.21-.04-.28-.06.02.02-.02.01-.11-.03-.09-.02-.17-.04-.22-.06-.02,0-.06-.02-.11-.06-.09-.02-.17-.05-.22-.08-.04,0-.07-.02-.11-.06-.07-.04-.14-.07-.2-.08-.06-.04-.09-.07-.11-.08-.06-.04-.12-.08-.2-.14-.06-.04-.09-.07-.11-.08-.09-.07-.18-.15-.25-.22l-.03-.03v-.03c-.07-.07-.11-.11-.11-.11,0,0-.03-.04-.08-.11Z"
                  style="fill: #55bbe6; stroke-width: 0px;" />
            <path d="M159.67,34.34c.92,0,1.69.33,2.32.98.65.65.98,1.44.98,2.35s-.33,1.69-.98,2.32c-.64.65-1.41.98-2.32.98h-20.27c-.92,0-1.69-.33-2.32-.98-.65-.63-.98-1.41-.98-2.32V4.1c0-.93.33-1.72.98-2.35.63-.65,1.41-.98,2.32-.98h.03l20.24.06c.92,0,1.7.33,2.35.98.63.65.95,1.44.95,2.35s-.33,1.69-.98,2.32c-.64.65-1.41.98-2.32.98h-.03l-16.91-.06v10.16h12.21c.92,0,1.7.32,2.35.95.65.65.98,1.44.98,2.35s-.33,1.7-.98,2.35c-.65.63-1.44.95-2.35.95h-12.21v10.16h16.94Z"
                  style="fill: #55bbe6; stroke-width: 0px;" />
            <path d="M220.62,1.02c.86.32,1.48.89,1.88,1.71.39.82.44,1.66.14,2.52l-11.79,33.51v.03c-.04.13-.09.27-.17.42-.04.04-.06.07-.06.08-.07.13-.16.25-.25.36.04-.06.02-.03-.06.08-.07.09-.16.19-.25.28-.06.06-.07.07-.06.06-.11.09-.22.19-.34.28.02-.02,0,0-.08.06-.11.07-.22.14-.34.2-.06.02-.07.03-.06.03-.13.06-.25.1-.37.14-.07.04-.08.05-.03.03-.11.04-.24.07-.39.08-.15.04-.19.05-.14.03-.19.04-.36.06-.53.06s-.35-.02-.53-.06c.06.02.01,0-.14-.03-.15-.02-.27-.05-.36-.08.04.02.02,0-.06-.03-.11-.04-.22-.08-.34-.14l-.08-.03c-.11-.06-.22-.12-.34-.2,0-.02,0-.03-.03-.03l-.03-.03c-.13-.09-.24-.19-.34-.28,0,.02-.03,0-.08-.06-.09-.09-.18-.2-.25-.31l-.06-.06c-.07-.11-.15-.23-.22-.36-.02-.04-.04-.07-.06-.08-.07-.15-.14-.29-.2-.42v-.03l-8.65-24.64-8.65,24.64v.03c-.06.13-.12.27-.2.42-.02.04-.04.07-.06.08-.07.13-.15.25-.22.36.04-.06.02-.03-.06.08-.09.09-.19.19-.28.28-.06.06-.07.07-.06.06-.09.09-.21.19-.34.28.04-.02,0,0-.08.06-.11.07-.22.14-.34.2-.06.02-.07.03-.06.03-.13.06-.24.1-.34.14-.09.04-.11.05-.06.03-.11.04-.24.07-.39.08-.13.04-.18.05-.14.03-.17.04-.34.06-.5.06-.19,0-.36-.02-.53-.06.06.02,0,0-.14-.03-.15-.02-.28-.05-.39-.08.06.02.05,0-.03-.03-.11-.04-.23-.08-.36-.14.02,0,0,0-.06-.03-.11-.06-.22-.12-.34-.2-.02-.02-.04-.03-.06-.03,0-.02-.01-.03-.03-.03-.11-.09-.22-.19-.34-.28.02.02,0,0-.06-.06-.09-.09-.19-.2-.28-.31l-.03-.06c-.09-.11-.18-.23-.25-.36-.02-.04-.04-.07-.06-.08-.07-.15-.13-.29-.17-.42l-.03-.03-11.76-33.51c-.3-.86-.25-1.7.14-2.52.39-.82,1.02-1.39,1.88-1.71.86-.3,1.7-.25,2.52.14.82.41,1.39,1.05,1.71,1.9l8.65,24.64,8.65-24.64v-.03s.04-.09.06-.17c.06-.11.07-.16.06-.14.02,0,.05-.04.08-.11.15-.3.34-.56.56-.78.24-.24.52-.45.84-.62.07-.04.1-.06.08-.06l.14-.06c.09-.04.15-.06.17-.06-.02,0-.01,0,.03-.03-.02.02.02,0,.11-.03.07-.02.13-.04.17-.06.04,0,.09,0,.17-.03.06-.02.1-.03.14-.03s.1,0,.19-.03h.45c.06,0,.12,0,.19.03h.14s.1,0,.2.03l.11.03c.06.02.13.04.22.06,0,.02,0,.03.03.03h.06v.03h.03s.09.05.17.08l.14.03.11.08c.3.15.57.35.81.59.22.22.41.48.56.76l.06.14.06.11c.04.09.07.16.08.2v.03l8.65,24.64,8.65-24.64c.3-.86.86-1.49,1.68-1.9.82-.39,1.23-.59,1.23-.59,0,0,.44.15,1.32.45Z"
                  style="fill: #55bbe6; stroke-width: 0px;" />
            <path d="M296.91,1.02c.86.32,1.48.89,1.88,1.71.39.82.44,1.66.14,2.52l-11.79,33.51v.03c-.04.13-.09.27-.17.42-.04.04-.06.07-.06.08-.07.13-.16.25-.25.36.04-.06.02-.03-.06.08-.07.09-.16.19-.25.28-.06.06-.07.07-.06.06-.11.09-.22.19-.34.28.02-.02,0,0-.08.06-.11.07-.22.14-.34.2-.06.02-.07.03-.06.03-.13.06-.25.1-.37.14-.07.04-.08.05-.03.03-.11.04-.24.07-.39.08-.15.04-.19.05-.14.03-.19.04-.36.06-.53.06s-.35-.02-.53-.06c.06.02.01,0-.14-.03-.15-.02-.27-.05-.36-.08.04.02.02,0-.06-.03-.11-.04-.22-.08-.34-.14l-.08-.03c-.11-.06-.22-.12-.34-.2,0-.02,0-.03-.03-.03l-.03-.03c-.13-.09-.24-.19-.34-.28,0,.02-.03,0-.08-.06-.09-.09-.18-.2-.25-.31l-.06-.06c-.07-.11-.15-.23-.22-.36-.02-.04-.04-.07-.06-.08-.07-.15-.14-.29-.2-.42v-.03l-8.65-24.64-8.65,24.64v.03c-.06.13-.12.27-.2.42-.02.04-.04.07-.06.08-.07.13-.15.25-.22.36.04-.06.02-.03-.06.08-.09.09-.19.19-.28.28-.06.06-.07.07-.06.06-.09.09-.21.19-.34.28.04-.02,0,0-.08.06-.11.07-.22.14-.34.2-.06.02-.07.03-.06.03-.13.06-.24.1-.34.14-.09.04-.11.05-.06.03-.11.04-.24.07-.39.08-.13.04-.18.05-.14.03-.17.04-.34.06-.5.06-.19,0-.36-.02-.53-.06.06.02,0,0-.14-.03-.15-.02-.28-.05-.39-.08.06.02.05,0-.03-.03-.11-.04-.23-.08-.36-.14.02,0,0,0-.06-.03-.11-.06-.22-.12-.34-.2-.02-.02-.04-.03-.06-.03,0-.02-.01-.03-.03-.03-.11-.09-.22-.19-.34-.28.02.02,0,0-.06-.06-.09-.09-.19-.2-.28-.31l-.03-.06c-.09-.11-.18-.23-.25-.36-.02-.04-.04-.07-.06-.08-.07-.15-.13-.29-.17-.42l-.03-.03-11.76-33.51c-.3-.86-.25-1.7.14-2.52.39-.82,1.02-1.39,1.88-1.71.86-.3,1.7-.25,2.52.14.82.41,1.39,1.05,1.71,1.9l8.65,24.64,8.65-24.64v-.03s.04-.09.06-.17c.06-.11.07-.16.06-.14.02,0,.05-.04.08-.11.15-.3.34-.56.56-.78.24-.24.52-.45.84-.62.07-.04.1-.06.08-.06l.14-.06c.09-.04.15-.06.17-.06-.02,0-.01,0,.03-.03-.02.02.02,0,.11-.03.07-.02.13-.04.17-.06.04,0,.09,0,.17-.03.06-.02.1-.03.14-.03s.1,0,.19-.03h.45c.06,0,.12,0,.19.03h.14s.1,0,.2.03l.11.03c.06.02.13.04.22.06,0,.02,0,.03.03.03h.06v.03h.03s.09.05.17.08l.14.03.11.08c.3.15.57.35.81.59.22.22.41.48.56.76l.06.14.06.11c.04.09.07.16.08.2v.03l8.65,24.64,8.65-24.64c.3-.86.86-1.49,1.68-1.9.82-.39,1.23-.59,1.23-.59,0,0,.44.15,1.32.45Z"
                  style="fill: #55bbe6; stroke-width: 0px;" />
            <path d="M307.15,40.72c-.84-.35-1.44-.95-1.79-1.79-.34-.84-.34-1.68,0-2.52l3.56-8.54v-.03l10.3-24.86c.04-.09.09-.19.14-.28l.06-.14c.06-.07.09-.12.11-.14,0-.02.03-.07.09-.14.06-.06.09-.09.11-.11,0-.02.03-.06.08-.11.07-.07.11-.12.11-.14.02-.02.06-.05.11-.08.07-.07.12-.11.14-.11-.02,0,.02-.03.11-.08.07-.06.12-.09.14-.11l.11-.08c.09-.06.15-.08.17-.08.04-.02.1-.05.2-.08.09-.06.12-.07.08-.06-.04.02,0,0,.11-.06.09-.02.16-.04.2-.06.02,0,.08-.02.2-.06l.11-.03s.1,0,.2-.03l.14-.03h.64l.17.03.14.03s.1.02.2.06c.11.02.15.03.11.03.22.06.43.14.62.25-.02-.02.02,0,.11.06.09.06.15.09.17.11l.11.08c.07.06.12.09.14.11.02,0,.06.03.11.08.06.06.1.09.14.11,0,.02.03.06.08.11.07.07.11.12.11.14l.09.11c.07.07.11.12.11.14s.03.07.08.14c.06.07.08.12.08.14.06.09.1.19.14.28l10.3,24.86v.03l3.55,8.54c.34.84.34,1.68,0,2.52-.35.84-.95,1.44-1.79,1.79-.41.17-.83.25-1.26.25-1.47,0-2.49-.68-3.05-2.04l-2.69-6.5h-16.21l-2.69,6.5c-.56,1.36-1.58,2.04-3.05,2.04h-.64s-.21-.08-.62-.25ZM327.65,25.85l-5.4-12.99-5.38,12.99h10.78Z"
                  style="fill: #55bbe6; stroke-width: 0px;" />
            <path d="M375.33,1.67c.71.56,1.12,1.29,1.23,2.18.09.91-.15,1.73-.73,2.44l-12.12,15.17v16.21c0,.91-.33,1.7-.98,2.35-.63.63-1.41.95-2.32.95s-1.69-.32-2.32-.95c-.65-.65-.98-1.44-.98-2.35v-16.21l-12.12-15.17c-.58-.71-.81-1.52-.7-2.44.09-.9.5-1.62,1.2-2.18.71-.58,1.52-.82,2.44-.73.9.11,1.63.52,2.21,1.23l10.28,12.88,10.3-12.88c.56-.71,1.29-1.12,2.18-1.23.91-.09,1.73.15,2.44.73Z"
                  style="fill: #55bbe6; stroke-width: 0px;" />
        </g>
        <g>
            <path d="M124.37,61.15c.27.09.47.26.59.52.11.25.12.51.03.78l-7.8,22.23s-.01.01-.03.07c-.01.02-.02.04-.02.05-.02.05-.05.08-.08.12v.02l-.02.02s-.07.09-.12.13c.01-.01,0,0-.03.03-.03.02-.07.04-.12.07-.01.01-.03.02-.05.03-.03.02-.07.04-.12.07h-.02s-.02,0-.02.02c0-.01,0-.01-.02,0-.02.01-.06.02-.1.03-.05,0-.06,0-.05,0-.06.01-.11.02-.17.02-.05,0-.1,0-.15-.02.01,0,0,0-.05,0-.04-.01-.08-.02-.12-.03-.01-.01-.02-.01-.02,0,0-.01,0-.02-.02-.02-.06-.02-.1-.04-.13-.07-.02-.01-.04-.02-.05-.03-.03-.02-.07-.05-.1-.07-.03-.03-.05-.05-.03-.03-.05-.04-.09-.09-.13-.13v-.02s-.02,0-.02-.02c-.02-.03-.05-.07-.07-.12,0-.01-.01-.03-.03-.05-.01-.06-.02-.08-.02-.07l-6.85-19.51-6.85,19.51s-.01.01-.03.07c-.01.02-.02.04-.02.05-.02.05-.05.08-.08.12v.02l-.02.02s-.07.09-.12.13c.01-.01,0,0-.03.03-.03.02-.07.04-.1.07-.02.01-.04.02-.05.03-.04.02-.09.04-.13.07h-.02l-.02.02s0-.01-.02,0c-.02.01-.06.02-.1.03-.05,0-.06,0-.05,0-.06.01-.11.02-.17.02-.04,0-.09,0-.15-.02.01,0,0,0-.05,0-.05-.01-.08-.02-.12-.03t0,0l-.02-.02h-.02s-.09-.04-.13-.07c-.02-.01-.04-.02-.05-.03-.03-.02-.07-.05-.1-.07-.03-.03-.04-.05-.03-.03-.05-.04-.09-.09-.12-.13-.01,0-.02,0-.02-.02l-.02-.02s-.04-.07-.07-.12c0-.01,0-.03-.02-.05-.02-.06-.03-.08-.03-.07l-7.8-22.23c-.1-.27-.09-.53.03-.78.12-.26.31-.43.57-.52.27-.09.53-.07.78.05.25.12.42.32.52.57l6.84,19.51,6.85-19.51s0,.02.03-.05c.01-.03.02-.07.03-.1.02-.02.04-.04.05-.07.02-.03.04-.06.07-.08.02-.03.05-.06.07-.07.02-.02.05-.05.07-.07.02-.02.05-.04.07-.07.03-.02.07-.04.1-.05.02-.01.05-.02.08-.03.08-.03.09-.05.05-.03-.02.01-.01.01.03,0,.03-.01.07-.02.1-.03.05,0,.08,0,.1-.02h.2s.04.02.08.02c.05.01.08.02.1.03.04.01.06.01.05,0l.02.02s.02,0,.03.02c.03.01.06.02.09.03.03.02.06.04.08.05.02.02.05.05.08.07.02.02.05.05.07.07.02.02.05.04.07.07.02.02.04.05.05.08.02.02.04.05.05.07.02.03.04.07.05.1.03.07.04.08.02.05l6.85,19.51,6.85-19.51c.09-.26.26-.45.52-.57.25-.12.37-.19.37-.19,0,0,.13.05.39.13Z"
                  style="fill: #55bbe6; stroke-width: 0px;" />
            <path d="M148.36,85.35c-3.34,0-6.19-1.18-8.56-3.54-2.36-2.36-3.54-5.21-3.54-8.56s1.18-6.19,3.54-8.56c2.36-2.36,5.21-3.54,8.56-3.54s6.19,1.18,8.56,3.54c2.36,2.36,3.54,5.22,3.54,8.56s-1.18,6.19-3.54,8.56c-2.36,2.36-5.22,3.54-8.56,3.54ZM148.36,63.15c-2.78,0-5.15.99-7.12,2.97-1.97,1.97-2.95,4.34-2.95,7.12s.98,5.15,2.95,7.12c1.97,1.97,4.34,2.95,7.12,2.95s5.15-.98,7.12-2.95c1.98-1.97,2.97-4.34,2.97-7.12s-.99-5.15-2.97-7.12c-1.97-1.98-4.34-2.97-7.12-2.97Z"
                  style="fill: #55bbe6; stroke-width: 0px;" />
            <path d="M183.59,61.18c1.95,0,3.61.64,5,1.91,1.37,1.27,2.06,2.81,2.06,4.61,0,1.6-.56,3-1.69,4.22-1.1,1.2-2.49,1.93-4.17,2.19l4.81,9.81c.12.25.14.5.05.76-.09.26-.26.45-.51.57-.13.07-.28.1-.44.1-.42,0-.71-.19-.89-.56l-5.21-10.58h-5.64v9.97c0,.27-.1.51-.3.71-.19.19-.43.29-.71.29s-.51-.1-.71-.29c-.19-.2-.29-.44-.29-.71v-22.01c0-.28.09-.52.29-.71.2-.19.44-.29.71-.29h7.65ZM188.65,67.69c0-1.25-.5-2.31-1.49-3.19-.99-.89-2.18-1.33-3.58-1.33h-6.63v9.03h6.75c1.37-.02,2.54-.47,3.49-1.35.97-.88,1.45-1.93,1.45-3.16Z"
                  style="fill: #55bbe6; stroke-width: 0px;" />
            <path d="M205.4,85.18c-.27,0-.51-.1-.71-.3-.19-.19-.29-.43-.29-.71v-22.06c0-.27.09-.51.29-.71.2-.19.44-.29.71-.29s.52.1.71.29c.2.2.3.44.3.71v12.71l12.64-13.3c.19-.2.42-.31.69-.32.28,0,.52.1.72.29.2.19.3.42.3.69.01.28-.08.52-.27.73l-9.71,10.19,10.04,10.57c.19.19.29.43.29.71-.01.28-.12.52-.32.71-.19.18-.42.27-.69.27s-.52-.1-.73-.3l-9.97-10.5-3,3.17v6.45c0,.28-.1.52-.3.71-.19.2-.43.3-.71.3Z"
                  style="fill: #55bbe6; stroke-width: 0px;" />
            <path d="M236.35,84.34c0,.28-.1.52-.3.71-.19.2-.43.3-.71.3s-.52-.1-.71-.3c-.2-.19-.3-.43-.3-.71v-22.21c0-.28.1-.52.3-.71.21-.21.45-.32.71-.3l13.4.03c.28,0,.52.1.71.3.2.2.3.44.3.71s-.1.52-.3.73c-.19.19-.43.29-.71.29l-12.39-.03v9.08h9.26c.28,0,.52.1.71.3.2.19.3.43.3.71s-.1.52-.3.71c-.19.2-.43.3-.71.3h-9.26v10.09Z"
                  style="fill: #55bbe6; stroke-width: 0px;" />
            <path d="M272.94,85.35c-3.34,0-6.19-1.18-8.56-3.54-2.36-2.36-3.54-5.21-3.54-8.56s1.18-6.19,3.54-8.56c2.36-2.36,5.21-3.54,8.56-3.54s6.19,1.18,8.56,3.54c2.36,2.36,3.54,5.22,3.54,8.56s-1.18,6.19-3.54,8.56c-2.36,2.36-5.22,3.54-8.56,3.54ZM272.94,63.15c-2.78,0-5.15.99-7.12,2.97-1.97,1.97-2.95,4.34-2.95,7.12s.98,5.15,2.95,7.12c1.97,1.97,4.34,2.95,7.12,2.95s5.15-.98,7.12-2.95c1.98-1.97,2.97-4.34,2.97-7.12s-.99-5.15-2.97-7.12c-1.97-1.98-4.34-2.97-7.12-2.97Z"
                  style="fill: #55bbe6; stroke-width: 0px;" />
            <path d="M308.17,61.18c1.95,0,3.61.64,5,1.91,1.37,1.27,2.06,2.81,2.06,4.61,0,1.6-.56,3-1.69,4.22-1.1,1.2-2.49,1.93-4.17,2.19l4.81,9.81c.12.25.14.5.05.76-.09.26-.26.45-.51.57-.13.07-.28.1-.44.1-.42,0-.71-.19-.89-.56l-5.21-10.58h-5.64v9.97c0,.27-.1.51-.3.71-.19.19-.43.29-.71.29s-.51-.1-.71-.29c-.19-.2-.29-.44-.29-.71v-22.01c0-.28.09-.52.29-.71.2-.19.44-.29.71-.29h7.65ZM313.24,67.69c0-1.25-.5-2.31-1.49-3.19-.99-.89-2.18-1.33-3.58-1.33h-6.63v9.03h6.75c1.37-.02,2.54-.47,3.49-1.35.97-.88,1.45-1.93,1.45-3.16Z"
                  style="fill: #55bbe6; stroke-width: 0px;" />
            <path d="M339.34,85.35c-3.34,0-6.19-1.19-8.56-3.56-2.37-2.36-3.56-5.22-3.56-8.56s1.19-6.21,3.56-8.57c2.36-2.37,5.22-3.56,8.56-3.56,2.76,0,5.22.84,7.39,2.52.22.17.35.39.39.67.03.28-.03.53-.2.74-.17.23-.4.36-.68.39-.28.04-.53-.02-.74-.2-1.81-1.38-3.86-2.08-6.16-2.08-2.78,0-5.15.98-7.12,2.95-1.97,1.97-2.95,4.35-2.95,7.14s.99,5.15,2.95,7.12,4.34,2.95,7.12,2.95c2.61,0,4.88-.87,6.8-2.62.2-.19.44-.28.73-.27.28.01.52.12.71.34.19.2.28.44.27.73-.01.28-.12.52-.34.71-2.31,2.1-5.03,3.16-8.17,3.16Z"
                  style="fill: #55bbe6; stroke-width: 0px;" />
            <path d="M362.16,85.35c-.28,0-.52-.1-.71-.3-.2-.19-.3-.43-.3-.71v-22.21c0-.28.1-.52.3-.71.2-.21.44-.32.71-.3l13.4.03c.28,0,.52.1.71.3.2.2.3.44.3.71s-.1.52-.3.73c-.19.19-.43.29-.71.29l-12.39-.03v9.08h9.27c.28,0,.52.1.71.3.2.19.3.43.3.71s-.1.52-.3.71c-.19.2-.43.3-.71.3h-9.27v9.08h12.39c.28,0,.52.1.71.3.2.19.3.43.3.71s-.1.52-.3.71c-.19.2-.43.3-.71.3h-13.4Z"
                  style="fill: #55bbe6; stroke-width: 0px;" />
        </g>
    </g>
</svg>